<svg width="210" height="67" viewBox="0 0 420 134" fill="none" xmlns="http://www.w3.org/2000/svg">
<g clip-path="url(#clip0_1_2)">
<path d="M195.539 111.804C195.539 111.841 195.542 111.89 195.548 111.952C195.554 112.014 195.557 112.082 195.557 112.156C195.557 112.23 195.554 112.298 195.548 112.359C195.542 112.421 195.539 112.464 195.539 112.489C195.539 112.575 195.536 112.659 195.53 112.739C195.523 112.819 195.52 112.896 195.52 112.97C195.496 113.032 195.486 113.094 195.493 113.155C195.499 113.217 195.496 113.279 195.483 113.34C195.459 113.476 195.44 113.612 195.428 113.748C195.415 113.883 195.391 114.019 195.354 114.155C195.292 114.365 195.236 114.565 195.187 114.756C195.138 114.948 195.076 115.136 195.002 115.321C194.792 115.839 194.533 116.308 194.225 116.728C193.916 117.147 193.546 117.505 193.114 117.801C192.867 117.974 192.611 118.122 192.346 118.246C192.08 118.369 191.794 118.48 191.485 118.579C191.362 118.616 191.235 118.644 191.106 118.662C190.976 118.681 190.843 118.708 190.708 118.745C190.646 118.758 190.587 118.764 190.532 118.764C190.476 118.764 190.418 118.77 190.356 118.782C190.307 118.795 190.257 118.798 190.208 118.792C190.158 118.786 190.103 118.789 190.041 118.801C190.017 118.813 189.98 118.816 189.93 118.81C189.881 118.804 189.844 118.807 189.819 118.82C189.72 118.844 189.597 118.85 189.449 118.838C189.301 118.826 189.171 118.82 189.06 118.82H184.747C184.537 118.82 184.362 118.81 184.22 118.792C184.078 118.773 183.976 118.69 183.914 118.542C183.877 118.443 183.862 118.292 183.868 118.088C183.874 117.885 183.877 117.715 183.877 117.579V106.714C183.877 106.566 183.874 106.408 183.868 106.242C183.862 106.075 183.89 105.942 183.951 105.844C184.001 105.77 184.093 105.708 184.229 105.659C184.254 105.646 184.278 105.643 184.303 105.649C184.328 105.656 184.352 105.653 184.377 105.64H189.356C189.43 105.64 189.508 105.637 189.588 105.631C189.668 105.625 189.739 105.628 189.801 105.64H190.023C190.084 105.665 190.152 105.674 190.226 105.668C190.3 105.662 190.368 105.671 190.43 105.696C190.504 105.72 190.575 105.73 190.643 105.723C190.711 105.717 190.782 105.727 190.856 105.751C191.028 105.788 191.195 105.822 191.355 105.853C191.516 105.884 191.67 105.93 191.818 105.992C191.954 106.054 192.09 106.109 192.225 106.158C192.361 106.208 192.491 106.27 192.614 106.344C192.923 106.541 193.206 106.732 193.466 106.917L193.577 107.028C193.7 107.127 193.811 107.238 193.91 107.362L194.076 107.51C194.138 107.608 194.209 107.704 194.289 107.797C194.37 107.889 194.441 107.985 194.502 108.084C194.663 108.343 194.805 108.617 194.928 108.907C195.051 109.197 195.162 109.503 195.261 109.824C195.323 109.984 195.363 110.151 195.381 110.323C195.4 110.496 195.428 110.669 195.465 110.842C195.465 110.903 195.468 110.956 195.474 110.999C195.48 111.042 195.483 111.088 195.483 111.138C195.508 111.212 195.517 111.292 195.511 111.378C195.505 111.465 195.514 111.539 195.539 111.6L195.539 111.804ZM192.651 112.693C192.676 112.631 192.688 112.532 192.688 112.396C192.688 112.261 192.676 112.162 192.651 112.1V111.749C192.627 111.637 192.611 111.52 192.605 111.397C192.599 111.273 192.583 111.162 192.559 111.064C192.534 111.002 192.525 110.943 192.531 110.888C192.537 110.832 192.528 110.774 192.503 110.712C192.441 110.514 192.383 110.326 192.327 110.147C192.272 109.968 192.195 109.799 192.096 109.638C191.911 109.342 191.698 109.086 191.457 108.87C191.217 108.654 190.924 108.472 190.578 108.324C190.467 108.287 190.356 108.253 190.245 108.222C190.134 108.191 190.023 108.164 189.912 108.139C189.813 108.127 189.723 108.117 189.643 108.111C189.563 108.105 189.474 108.09 189.375 108.065C189.325 108.053 189.276 108.049 189.227 108.056C189.177 108.062 189.134 108.059 189.097 108.046H188.69C188.628 108.034 188.56 108.031 188.486 108.037C188.412 108.043 188.338 108.046 188.264 108.046H187.431C187.407 108.071 187.366 108.077 187.311 108.065C187.255 108.053 187.209 108.053 187.172 108.065C187.11 108.09 187.049 108.111 186.987 108.13C186.925 108.148 186.876 108.188 186.839 108.25C186.79 108.312 186.765 108.398 186.765 108.509C186.765 108.62 186.765 108.744 186.765 108.879C186.765 109.04 186.762 109.206 186.756 109.379C186.749 109.552 186.746 109.725 186.746 109.897V115.062C186.746 115.136 186.743 115.216 186.737 115.302C186.731 115.389 186.74 115.463 186.765 115.525V115.71C186.765 115.796 186.768 115.879 186.774 115.96C186.78 116.04 186.796 116.111 186.82 116.172C186.894 116.321 187.036 116.398 187.246 116.404C187.456 116.41 187.672 116.413 187.894 116.413C188.375 116.413 188.863 116.41 189.356 116.404C189.85 116.398 190.27 116.327 190.615 116.191C191.072 116.006 191.433 115.759 191.698 115.451C191.963 115.142 192.188 114.759 192.374 114.303C192.423 114.204 192.46 114.093 192.485 113.97C192.509 113.846 192.54 113.723 192.577 113.599V113.451C192.602 113.365 192.614 113.272 192.614 113.174C192.614 113.075 192.626 112.976 192.651 112.878L192.651 112.693Z" fill="url(#paint0_linear_1_2)"/>
<path d="M201.95 105.64H208.872H210.483C210.631 105.64 210.773 105.646 210.909 105.659C211.044 105.671 211.143 105.72 211.205 105.807C211.229 105.844 211.245 105.887 211.251 105.936C211.257 105.986 211.273 106.035 211.297 106.084V106.288C211.31 106.374 211.313 106.467 211.307 106.566C211.3 106.664 211.297 106.757 211.297 106.843C211.297 106.942 211.3 107.038 211.307 107.13C211.313 107.223 211.31 107.312 211.297 107.399C211.285 107.46 211.279 107.553 211.279 107.676C211.242 107.824 211.18 107.923 211.094 107.972C211.02 108.022 210.927 108.046 210.816 108.046C210.705 108.046 210.588 108.046 210.464 108.046H209.187H205.837C205.738 108.046 205.624 108.043 205.494 108.037C205.365 108.031 205.235 108.031 205.106 108.037C204.976 108.043 204.856 108.056 204.745 108.074C204.634 108.093 204.553 108.12 204.504 108.158C204.418 108.219 204.365 108.309 204.347 108.426C204.328 108.543 204.319 108.676 204.319 108.824V109.879V110.416C204.344 110.514 204.368 110.598 204.393 110.666C204.418 110.734 204.461 110.786 204.523 110.823C204.597 110.872 204.683 110.9 204.782 110.906C204.88 110.912 204.985 110.916 205.096 110.916H206.096H209.28C209.366 110.916 209.474 110.912 209.604 110.906C209.733 110.9 209.86 110.9 209.983 110.906C210.106 110.912 210.221 110.922 210.326 110.934C210.43 110.946 210.508 110.971 210.557 111.008C210.619 111.045 210.662 111.119 210.686 111.23C210.711 111.341 210.727 111.462 210.733 111.591C210.739 111.721 210.739 111.853 210.733 111.989C210.727 112.125 210.723 112.242 210.723 112.341C210.723 112.427 210.723 112.514 210.723 112.6C210.723 112.686 210.711 112.76 210.686 112.822C210.662 112.921 210.612 113.001 210.538 113.063C210.477 113.1 210.393 113.124 210.288 113.137C210.184 113.149 210.066 113.155 209.937 113.155C209.807 113.155 209.678 113.152 209.548 113.146C209.418 113.14 209.311 113.137 209.224 113.137H205.615C205.467 113.137 205.325 113.134 205.189 113.128C205.053 113.121 204.927 113.127 204.809 113.146C204.692 113.165 204.593 113.202 204.513 113.257C204.433 113.313 204.374 113.396 204.337 113.507C204.325 113.569 204.319 113.633 204.319 113.701C204.319 113.769 204.319 113.834 204.319 113.896V114.599V115.636C204.319 115.784 204.328 115.916 204.347 116.034C204.365 116.151 204.418 116.24 204.504 116.302C204.541 116.339 204.587 116.361 204.643 116.367C204.698 116.373 204.757 116.388 204.819 116.413H205.004C205.065 116.425 205.133 116.429 205.207 116.422C205.281 116.416 205.349 116.413 205.411 116.413H206.188H209.668H210.649C210.748 116.413 210.844 116.413 210.936 116.413C211.029 116.413 211.112 116.432 211.186 116.469C211.285 116.506 211.353 116.574 211.39 116.672C211.415 116.734 211.43 116.808 211.436 116.894C211.442 116.981 211.445 117.073 211.445 117.172V118.023C211.445 118.172 211.439 118.31 211.427 118.44C211.415 118.57 211.359 118.665 211.26 118.727C211.186 118.789 211.091 118.819 210.973 118.819C210.856 118.819 210.73 118.819 210.594 118.819H209.206H203.727H202.264C202.091 118.819 201.94 118.81 201.811 118.792C201.681 118.773 201.586 118.715 201.524 118.616C201.474 118.542 201.45 118.446 201.45 118.329C201.45 118.212 201.45 118.098 201.45 117.986V116.654V111.619V107.584V106.436C201.45 106.325 201.45 106.214 201.45 106.103C201.45 105.992 201.474 105.905 201.524 105.844C201.573 105.757 201.666 105.696 201.801 105.659C201.826 105.646 201.851 105.643 201.876 105.649C201.9 105.655 201.925 105.652 201.95 105.64Z" fill="url(#paint1_linear_1_2)"/>
<path d="M221.651 105.362C224.045 105.325 225.692 106.035 226.593 107.491C226.716 107.689 226.812 107.892 226.88 108.102C226.948 108.312 227.013 108.54 227.074 108.787C227.099 108.886 227.108 109 227.102 109.129C227.096 109.259 227.068 109.355 227.019 109.416C226.957 109.49 226.871 109.537 226.76 109.555C226.649 109.574 226.525 109.583 226.389 109.583H225.223C225.112 109.583 225.001 109.583 224.89 109.583C224.779 109.583 224.686 109.57 224.612 109.546C224.464 109.484 224.372 109.385 224.335 109.25C224.298 109.114 224.248 108.978 224.187 108.842C224.137 108.719 224.069 108.589 223.983 108.454C223.897 108.318 223.804 108.213 223.705 108.139C223.533 108.016 223.366 107.911 223.206 107.824C223.058 107.763 222.875 107.71 222.66 107.667C222.444 107.624 222.221 107.596 221.993 107.584C221.765 107.571 221.54 107.578 221.318 107.602C221.095 107.627 220.898 107.676 220.725 107.75C220.441 107.874 220.222 108.019 220.068 108.185C219.914 108.352 219.806 108.602 219.744 108.935C219.719 109.021 219.713 109.117 219.726 109.222C219.738 109.327 219.757 109.41 219.781 109.472C219.88 109.731 220.019 109.913 220.198 110.018C220.377 110.123 220.589 110.224 220.836 110.323C220.972 110.385 221.111 110.431 221.253 110.462C221.395 110.493 221.54 110.533 221.688 110.582C222.021 110.693 222.363 110.789 222.715 110.869C223.067 110.949 223.415 111.039 223.761 111.138C223.823 111.162 223.884 111.175 223.946 111.175C224.008 111.175 224.069 111.187 224.131 111.212C224.378 111.298 224.634 111.378 224.899 111.452C225.165 111.526 225.402 111.631 225.612 111.767C225.945 111.977 226.232 112.187 226.473 112.396C226.713 112.606 226.938 112.878 227.148 113.211C227.21 113.31 227.262 113.421 227.306 113.544C227.349 113.667 227.395 113.791 227.444 113.914C227.457 113.951 227.463 113.985 227.463 114.016C227.463 114.047 227.469 114.075 227.481 114.099C227.531 114.297 227.556 114.544 227.556 114.84C227.58 114.901 227.58 114.963 227.556 115.025V115.358C227.531 115.494 227.509 115.623 227.491 115.747C227.472 115.87 227.444 115.994 227.407 116.117C227.333 116.339 227.253 116.543 227.167 116.728C227.08 116.913 226.976 117.092 226.852 117.265C226.803 117.326 226.753 117.379 226.704 117.422C226.655 117.465 226.612 117.518 226.574 117.579C226.513 117.653 226.445 117.724 226.371 117.792C226.297 117.86 226.217 117.925 226.13 117.987C226.069 118.036 226.004 118.085 225.936 118.135C225.868 118.184 225.797 118.233 225.723 118.283C225.513 118.418 225.294 118.529 225.066 118.616C224.838 118.702 224.6 118.789 224.353 118.875C224.18 118.937 224.002 118.977 223.816 118.995C223.631 119.014 223.446 119.042 223.261 119.079C223.175 119.103 223.091 119.113 223.011 119.106C222.931 119.1 222.854 119.109 222.78 119.134H222.632C222.607 119.134 222.573 119.131 222.53 119.125C222.487 119.119 222.453 119.122 222.428 119.134C222.366 119.146 222.262 119.153 222.113 119.153C221.965 119.153 221.861 119.146 221.799 119.134H221.614C221.527 119.109 221.438 119.1 221.345 119.106C221.253 119.113 221.169 119.103 221.095 119.079C221.034 119.079 220.978 119.076 220.929 119.069C220.879 119.063 220.824 119.054 220.762 119.042C220.614 119.005 220.46 118.974 220.299 118.949C220.139 118.924 219.991 118.887 219.855 118.838C219.251 118.641 218.72 118.391 218.263 118.088C217.807 117.786 217.424 117.388 217.116 116.894C216.918 116.598 216.764 116.247 216.653 115.839C216.628 115.765 216.613 115.691 216.607 115.617C216.6 115.543 216.585 115.463 216.56 115.377C216.536 115.278 216.517 115.158 216.505 115.016C216.493 114.874 216.517 114.766 216.579 114.692C216.641 114.593 216.73 114.534 216.847 114.516C216.965 114.497 217.097 114.488 217.245 114.488H218.411C218.51 114.488 218.615 114.488 218.726 114.488C218.837 114.488 218.936 114.507 219.022 114.544C219.158 114.605 219.238 114.707 219.263 114.849C219.288 114.991 219.331 115.136 219.392 115.284C219.442 115.432 219.504 115.568 219.578 115.691C219.652 115.815 219.732 115.932 219.818 116.043C219.88 116.117 219.948 116.185 220.022 116.247C220.096 116.308 220.17 116.364 220.244 116.413C220.515 116.586 220.849 116.728 221.243 116.839C221.33 116.864 221.413 116.876 221.493 116.876C221.574 116.876 221.663 116.888 221.762 116.913H221.854C221.953 116.938 222.089 116.95 222.262 116.95C222.434 116.95 222.57 116.938 222.669 116.913C222.706 116.901 222.768 116.894 222.854 116.894C222.916 116.882 222.98 116.873 223.048 116.867C223.116 116.86 223.181 116.845 223.243 116.82C223.662 116.709 223.995 116.561 224.242 116.376C224.489 116.191 224.662 115.882 224.76 115.451C224.785 115.364 224.788 115.265 224.77 115.154C224.751 115.043 224.73 114.957 224.705 114.895C224.581 114.562 224.372 114.303 224.076 114.118C224.039 114.093 223.971 114.056 223.872 114.007C223.687 113.896 223.48 113.806 223.252 113.738C223.024 113.671 222.798 113.6 222.576 113.525C222.49 113.501 222.407 113.479 222.326 113.461C222.246 113.442 222.157 113.421 222.058 113.396C221.86 113.334 221.66 113.282 221.456 113.239C221.253 113.195 221.058 113.143 220.873 113.081C220.812 113.057 220.762 113.044 220.725 113.044C220.688 113.044 220.645 113.032 220.596 113.007C220.497 112.983 220.407 112.958 220.327 112.933C220.247 112.908 220.158 112.884 220.059 112.859C219.775 112.76 219.503 112.659 219.244 112.554C218.985 112.449 218.745 112.328 218.522 112.193C218.239 112.008 217.979 111.792 217.745 111.545C217.511 111.298 217.325 111.014 217.19 110.693C217.14 110.582 217.103 110.468 217.079 110.351C217.054 110.234 217.023 110.107 216.986 109.971C216.961 109.86 216.943 109.7 216.931 109.49C216.918 109.28 216.924 109.108 216.949 108.972C216.961 108.923 216.968 108.849 216.968 108.75C217.005 108.614 217.035 108.485 217.06 108.361C217.085 108.238 217.122 108.114 217.171 107.991C217.356 107.559 217.594 107.192 217.884 106.89C218.174 106.587 218.51 106.313 218.893 106.066C219.139 105.918 219.405 105.801 219.689 105.714C219.972 105.628 220.275 105.548 220.596 105.473C220.719 105.449 220.839 105.433 220.957 105.427C221.074 105.421 221.194 105.406 221.318 105.381C221.355 105.369 221.413 105.369 221.493 105.381C221.574 105.393 221.626 105.387 221.651 105.362Z" fill="url(#paint2_linear_1_2)"/>
<path d="M233.67 105.64H240.593H242.203C242.351 105.64 242.493 105.646 242.629 105.659C242.765 105.671 242.864 105.72 242.925 105.807C242.95 105.844 242.965 105.887 242.972 105.936C242.978 105.986 242.993 106.035 243.018 106.084V106.288C243.03 106.374 243.033 106.467 243.027 106.566C243.021 106.664 243.018 106.757 243.018 106.843C243.018 106.942 243.021 107.038 243.027 107.13C243.033 107.223 243.03 107.312 243.018 107.399C243.005 107.46 242.999 107.553 242.999 107.676C242.962 107.824 242.901 107.923 242.814 107.972C242.74 108.022 242.648 108.046 242.537 108.046C242.426 108.046 242.308 108.046 242.185 108.046H240.908H237.557C237.459 108.046 237.344 108.043 237.215 108.037C237.085 108.031 236.956 108.031 236.826 108.037C236.697 108.043 236.576 108.056 236.465 108.074C236.354 108.093 236.274 108.12 236.225 108.158C236.138 108.219 236.086 108.309 236.067 108.426C236.049 108.543 236.039 108.676 236.039 108.824V109.879V110.416C236.064 110.514 236.089 110.598 236.113 110.666C236.138 110.734 236.181 110.786 236.243 110.823C236.317 110.872 236.403 110.9 236.502 110.906C236.601 110.912 236.706 110.916 236.817 110.916H237.816H241C241.087 110.916 241.195 110.912 241.324 110.906C241.454 110.9 241.58 110.9 241.704 110.906C241.827 110.912 241.941 110.922 242.046 110.934C242.151 110.946 242.228 110.971 242.277 111.008C242.339 111.045 242.382 111.119 242.407 111.23C242.432 111.341 242.447 111.462 242.453 111.591C242.459 111.721 242.459 111.853 242.453 111.989C242.447 112.125 242.444 112.242 242.444 112.341C242.444 112.427 242.444 112.514 242.444 112.6C242.444 112.686 242.432 112.76 242.407 112.822C242.382 112.921 242.333 113.001 242.259 113.063C242.197 113.1 242.114 113.124 242.009 113.137C241.904 113.149 241.787 113.155 241.657 113.155C241.528 113.155 241.398 113.152 241.269 113.146C241.139 113.14 241.031 113.137 240.945 113.137H237.335C237.187 113.137 237.045 113.134 236.909 113.128C236.774 113.121 236.647 113.127 236.53 113.146C236.413 113.165 236.314 113.202 236.234 113.257C236.154 113.313 236.095 113.396 236.058 113.507C236.046 113.569 236.039 113.633 236.039 113.701C236.039 113.769 236.039 113.834 236.039 113.896V114.599V115.636C236.039 115.784 236.049 115.916 236.067 116.034C236.086 116.151 236.138 116.24 236.225 116.302C236.262 116.339 236.308 116.361 236.363 116.367C236.419 116.373 236.478 116.388 236.539 116.413H236.724C236.786 116.425 236.854 116.429 236.928 116.422C237.002 116.416 237.07 116.413 237.132 116.413H237.909H241.389H242.37C242.469 116.413 242.564 116.413 242.657 116.413C242.749 116.413 242.833 116.432 242.907 116.469C243.005 116.506 243.073 116.574 243.11 116.672C243.135 116.734 243.15 116.808 243.157 116.894C243.163 116.981 243.166 117.073 243.166 117.172V118.023C243.166 118.172 243.16 118.31 243.147 118.44C243.135 118.57 243.08 118.665 242.981 118.727C242.907 118.789 242.811 118.819 242.694 118.819C242.577 118.819 242.45 118.819 242.314 118.819H240.926H235.447H233.985C233.812 118.819 233.661 118.81 233.531 118.792C233.402 118.773 233.306 118.715 233.244 118.616C233.195 118.542 233.17 118.446 233.17 118.329C233.17 118.212 233.17 118.098 233.17 117.986V116.654V111.619V107.584V106.436C233.17 106.325 233.17 106.214 233.17 106.103C233.17 105.992 233.195 105.905 233.244 105.844C233.294 105.757 233.386 105.696 233.522 105.659C233.547 105.646 233.571 105.643 233.596 105.649C233.621 105.655 233.645 105.652 233.67 105.64Z" fill="url(#paint3_linear_1_2)"/>
<path d="M249.54 105.64H251.039C251.175 105.64 251.307 105.637 251.437 105.631C251.566 105.625 251.681 105.646 251.779 105.696C251.903 105.745 251.998 105.819 252.066 105.918C252.134 106.016 252.199 106.115 252.261 106.214L252.927 107.269C253.359 107.972 253.794 108.673 254.232 109.37C254.67 110.067 255.105 110.767 255.537 111.471C255.747 111.804 255.953 112.14 256.157 112.48C256.361 112.819 256.574 113.149 256.796 113.47C256.845 113.544 256.891 113.618 256.935 113.692C256.978 113.766 257.036 113.834 257.11 113.896C257.135 113.92 257.166 113.945 257.203 113.97C257.24 113.994 257.277 113.994 257.314 113.97C257.4 113.945 257.444 113.89 257.444 113.803C257.444 113.717 257.456 113.624 257.481 113.526C257.493 113.439 257.496 113.343 257.49 113.239C257.484 113.134 257.481 113.032 257.481 112.933V111.767V107.473V106.769C257.481 106.708 257.477 106.646 257.471 106.584C257.465 106.522 257.468 106.467 257.481 106.418V106.214C257.481 106.041 257.518 105.905 257.592 105.807C257.653 105.72 257.737 105.671 257.841 105.659C257.946 105.646 258.067 105.64 258.202 105.64H259.332C259.43 105.64 259.529 105.64 259.628 105.64C259.726 105.64 259.813 105.652 259.887 105.677C260.047 105.739 260.134 105.847 260.146 106.001C260.158 106.155 260.165 106.337 260.165 106.547V108.583V116.339V117.894C260.165 118.03 260.168 118.165 260.174 118.301C260.18 118.437 260.158 118.542 260.109 118.616C260.06 118.69 260.001 118.736 259.933 118.755C259.865 118.773 259.782 118.795 259.683 118.819H259.035H258.017C257.906 118.819 257.798 118.819 257.693 118.819C257.589 118.819 257.499 118.801 257.425 118.764C257.289 118.702 257.184 118.619 257.11 118.514C257.036 118.409 256.962 118.295 256.888 118.172C256.777 117.999 256.669 117.823 256.564 117.644C256.459 117.465 256.351 117.289 256.24 117.117L253.464 112.674C253.291 112.39 253.121 112.116 252.955 111.85C252.788 111.585 252.618 111.31 252.446 111.027C252.384 110.94 252.313 110.832 252.233 110.703C252.153 110.573 252.045 110.508 251.909 110.508C251.81 110.595 251.758 110.693 251.752 110.805C251.745 110.916 251.742 111.057 251.742 111.23V112.526V116.95V117.672C251.742 117.734 251.745 117.795 251.752 117.857C251.758 117.919 251.748 117.98 251.724 118.042V118.246C251.724 118.443 251.693 118.585 251.631 118.671C251.57 118.745 251.486 118.789 251.381 118.801C251.276 118.813 251.156 118.819 251.02 118.819H249.891C249.793 118.819 249.694 118.819 249.595 118.819C249.496 118.819 249.41 118.807 249.336 118.782C249.176 118.721 249.086 118.61 249.068 118.449C249.049 118.289 249.04 118.104 249.04 117.894V115.765V108.343V106.621C249.04 106.485 249.04 106.344 249.04 106.195C249.04 106.047 249.065 105.93 249.114 105.844C249.163 105.757 249.25 105.696 249.373 105.659C249.398 105.659 249.425 105.656 249.456 105.649C249.487 105.643 249.515 105.64 249.54 105.64Z" fill="url(#paint4_linear_1_2)"/>
<path d="M265.798 105.64H267.297C267.433 105.64 267.572 105.64 267.714 105.64C267.856 105.64 267.97 105.671 268.056 105.733C268.167 105.794 268.241 105.893 268.278 106.029C268.315 106.165 268.358 106.3 268.408 106.436C268.494 106.671 268.571 106.905 268.639 107.139C268.707 107.374 268.784 107.615 268.871 107.861C269.117 108.626 269.361 109.392 269.602 110.157C269.842 110.922 270.086 111.687 270.333 112.452C270.395 112.662 270.459 112.871 270.527 113.081C270.595 113.291 270.66 113.501 270.722 113.711C270.759 113.822 270.796 113.933 270.833 114.044C270.87 114.155 270.919 114.254 270.981 114.34C270.993 114.365 271.008 114.38 271.027 114.386C271.046 114.392 271.067 114.408 271.092 114.433C271.228 114.433 271.317 114.374 271.36 114.257C271.403 114.139 271.443 114.031 271.481 113.933C271.579 113.674 271.666 113.408 271.74 113.137C271.814 112.865 271.9 112.588 271.999 112.304C272.27 111.489 272.533 110.678 272.785 109.87C273.038 109.061 273.301 108.25 273.572 107.436C273.634 107.238 273.696 107.044 273.757 106.853C273.819 106.661 273.881 106.467 273.942 106.269C273.992 106.171 274.032 106.072 274.063 105.973C274.094 105.875 274.158 105.794 274.257 105.733C274.343 105.671 274.445 105.64 274.562 105.64C274.68 105.64 274.8 105.64 274.923 105.64H276.164C276.287 105.64 276.41 105.64 276.534 105.64C276.657 105.64 276.756 105.665 276.83 105.714C276.953 105.776 276.997 105.89 276.96 106.057C276.923 106.223 276.886 106.362 276.848 106.473C276.737 106.757 276.636 107.05 276.543 107.352C276.451 107.655 276.355 107.954 276.256 108.25C276.219 108.324 276.191 108.398 276.173 108.472C276.154 108.546 276.133 108.62 276.108 108.694C276.009 108.953 275.92 109.219 275.84 109.49C275.759 109.762 275.67 110.033 275.571 110.305C275.238 111.304 274.905 112.307 274.572 113.313C274.239 114.318 273.905 115.321 273.572 116.321C273.461 116.604 273.362 116.891 273.276 117.181C273.19 117.471 273.097 117.758 272.998 118.042C272.937 118.215 272.875 118.372 272.813 118.514C272.752 118.656 272.628 118.752 272.443 118.801C272.344 118.826 272.233 118.835 272.11 118.829C271.986 118.823 271.869 118.819 271.758 118.819H270.425C270.29 118.819 270.145 118.823 269.99 118.829C269.836 118.835 269.71 118.807 269.611 118.745C269.475 118.671 269.386 118.557 269.343 118.403C269.299 118.249 269.253 118.098 269.204 117.949C269.117 117.69 269.034 117.428 268.954 117.163C268.874 116.897 268.79 116.635 268.704 116.376C268.432 115.599 268.173 114.815 267.927 114.025C267.68 113.236 267.421 112.446 267.149 111.656C267.038 111.298 266.93 110.943 266.825 110.592C266.72 110.24 266.606 109.891 266.483 109.546C266.433 109.435 266.396 109.324 266.372 109.213C266.347 109.102 266.31 108.99 266.261 108.879C266.15 108.534 266.042 108.191 265.937 107.852C265.832 107.513 265.718 107.17 265.594 106.825C265.57 106.714 265.539 106.606 265.502 106.501C265.465 106.396 265.428 106.288 265.391 106.177C265.378 106.115 265.369 106.054 265.363 105.992C265.357 105.93 265.366 105.875 265.391 105.825C265.428 105.739 265.508 105.683 265.631 105.659C265.656 105.646 265.684 105.643 265.715 105.649C265.745 105.656 265.773 105.652 265.798 105.64Z" fill="url(#paint5_linear_1_2)"/>
<path d="M294.495 111.786C294.52 111.86 294.535 111.986 294.541 112.165C294.547 112.344 294.538 112.47 294.514 112.544V112.785C294.489 112.909 294.477 113.038 294.477 113.174C294.477 113.31 294.464 113.445 294.44 113.581C294.415 113.667 294.396 113.754 294.384 113.84C294.372 113.927 294.353 114.013 294.328 114.099C294.267 114.321 294.208 114.537 294.153 114.747C294.097 114.957 294.026 115.161 293.94 115.358C293.57 116.222 293.07 116.941 292.44 117.514C291.811 118.088 291.034 118.529 290.108 118.838C289.972 118.887 289.837 118.924 289.701 118.949C289.565 118.974 289.429 118.998 289.294 119.023C289.232 119.048 289.167 119.06 289.099 119.06C289.031 119.06 288.967 119.066 288.905 119.079L288.294 119.134C288.245 119.146 288.158 119.15 288.035 119.143C287.912 119.137 287.831 119.128 287.794 119.116C287.733 119.103 287.674 119.1 287.618 119.106C287.563 119.113 287.504 119.109 287.443 119.097H287.239C287.14 119.072 287.048 119.057 286.961 119.051C286.875 119.045 286.782 119.029 286.684 119.005C286.585 118.98 286.486 118.958 286.388 118.94C286.289 118.921 286.19 118.9 286.091 118.875C285.956 118.826 285.817 118.776 285.675 118.727C285.533 118.678 285.394 118.622 285.258 118.56C284.518 118.239 283.892 117.811 283.38 117.274C282.867 116.737 282.451 116.098 282.13 115.358C282.056 115.185 281.994 115.003 281.945 114.812C281.896 114.621 281.84 114.426 281.778 114.229C281.754 114.167 281.741 114.115 281.741 114.072C281.741 114.028 281.735 113.982 281.723 113.933C281.698 113.846 281.68 113.757 281.667 113.664C281.655 113.572 281.637 113.476 281.612 113.377C281.6 113.316 281.596 113.257 281.603 113.202C281.609 113.146 281.6 113.094 281.575 113.044C281.562 112.97 281.562 112.893 281.575 112.813C281.587 112.733 281.587 112.655 281.575 112.581C281.55 112.52 281.538 112.424 281.538 112.295C281.538 112.165 281.55 112.069 281.575 112.008C281.587 111.946 281.587 111.887 281.575 111.832C281.562 111.776 281.562 111.718 281.575 111.656V111.545C281.6 111.458 281.609 111.375 281.603 111.295C281.596 111.215 281.606 111.138 281.63 111.064C281.655 111.002 281.667 110.937 281.667 110.869C281.667 110.801 281.68 110.737 281.704 110.675C281.766 110.465 281.815 110.258 281.852 110.055C281.889 109.851 281.945 109.651 282.019 109.453C282.118 109.243 282.21 109.034 282.297 108.824C282.383 108.614 282.488 108.417 282.611 108.232C282.982 107.639 283.407 107.146 283.889 106.751C284.37 106.356 284.956 106.016 285.647 105.733C285.808 105.671 285.977 105.622 286.156 105.585C286.335 105.548 286.511 105.504 286.684 105.455C286.745 105.43 286.804 105.418 286.859 105.418C286.915 105.418 286.974 105.412 287.035 105.399L287.591 105.344C287.615 105.332 287.649 105.332 287.692 105.344C287.736 105.356 287.77 105.356 287.794 105.344C288.67 105.319 289.429 105.409 290.071 105.612C290.713 105.816 291.287 106.097 291.793 106.455C291.953 106.566 292.12 106.692 292.292 106.834C292.465 106.976 292.607 107.121 292.718 107.269C292.78 107.331 292.841 107.395 292.903 107.463C292.965 107.531 293.02 107.596 293.07 107.658C293.205 107.855 293.341 108.056 293.477 108.259C293.613 108.463 293.73 108.682 293.829 108.916C293.903 109.089 293.967 109.256 294.023 109.416C294.079 109.577 294.137 109.749 294.199 109.934C294.236 110.058 294.267 110.184 294.291 110.314C294.316 110.444 294.347 110.576 294.384 110.712C294.409 110.798 294.421 110.882 294.421 110.962C294.421 111.042 294.433 111.119 294.458 111.193C294.483 111.267 294.492 111.344 294.486 111.425C294.48 111.505 294.483 111.576 294.495 111.637V111.786ZM291.626 112.563C291.651 112.501 291.663 112.412 291.663 112.295C291.663 112.177 291.651 112.088 291.626 112.026V111.711C291.614 111.662 291.61 111.616 291.617 111.573C291.623 111.529 291.614 111.483 291.589 111.434C291.564 111.335 291.549 111.24 291.543 111.147C291.536 111.054 291.521 110.965 291.496 110.879C291.496 110.817 291.484 110.749 291.459 110.675C291.422 110.539 291.385 110.403 291.348 110.268C291.311 110.132 291.262 109.996 291.2 109.86C290.929 109.231 290.537 108.722 290.025 108.333C289.513 107.945 288.8 107.75 287.887 107.75C287.862 107.763 287.834 107.766 287.804 107.76C287.773 107.753 287.745 107.756 287.72 107.769C287.671 107.781 287.622 107.784 287.572 107.778C287.523 107.772 287.467 107.781 287.406 107.806C287.27 107.831 287.137 107.858 287.008 107.889C286.878 107.92 286.758 107.96 286.647 108.009C286.128 108.232 285.718 108.54 285.416 108.935C285.113 109.33 284.87 109.805 284.685 110.36C284.648 110.496 284.62 110.629 284.601 110.758C284.583 110.888 284.555 111.02 284.518 111.156C284.506 111.206 284.499 111.252 284.499 111.295C284.499 111.338 284.493 111.385 284.481 111.434C284.456 111.496 284.45 111.563 284.462 111.637C284.475 111.712 284.475 111.779 284.462 111.841C284.438 111.903 284.422 112.017 284.416 112.184C284.41 112.35 284.419 112.464 284.444 112.526V112.73C284.456 112.779 284.462 112.831 284.462 112.887C284.462 112.942 284.469 112.995 284.481 113.044C284.481 113.094 284.484 113.14 284.49 113.183C284.496 113.226 284.499 113.273 284.499 113.322C284.536 113.458 284.564 113.593 284.583 113.729C284.601 113.865 284.635 113.994 284.685 114.118C284.82 114.513 284.987 114.88 285.184 115.219C285.382 115.559 285.629 115.833 285.925 116.043C285.986 116.105 286.051 116.154 286.119 116.191C286.187 116.228 286.258 116.265 286.332 116.302C286.468 116.388 286.613 116.456 286.767 116.506C286.921 116.555 287.085 116.604 287.257 116.654C287.319 116.678 287.378 116.688 287.433 116.682C287.489 116.675 287.547 116.678 287.609 116.691C287.683 116.715 287.757 116.728 287.831 116.728C287.905 116.728 287.986 116.728 288.072 116.728H288.22C288.282 116.715 288.337 116.712 288.387 116.719C288.436 116.725 288.491 116.715 288.553 116.691C288.677 116.666 288.8 116.645 288.923 116.626C289.047 116.608 289.164 116.574 289.275 116.524C289.806 116.314 290.222 116.043 290.525 115.71C290.827 115.377 291.083 114.945 291.293 114.414C291.354 114.278 291.401 114.13 291.432 113.97C291.462 113.809 291.503 113.649 291.552 113.489L291.607 113.044C291.62 112.995 291.626 112.942 291.626 112.887C291.626 112.831 291.626 112.773 291.626 112.711V112.563Z" fill="url(#paint6_linear_1_2)"/>
<path d="M300.887 105.64H302.461C302.596 105.64 302.729 105.643 302.859 105.649C302.988 105.656 303.084 105.702 303.146 105.788C303.207 105.875 303.238 105.989 303.238 106.131C303.238 106.273 303.238 106.424 303.238 106.584V108.269V113.877V114.969C303.238 115.068 303.235 115.164 303.229 115.256C303.223 115.349 303.232 115.438 303.257 115.525V115.71C303.257 115.796 303.26 115.879 303.266 115.96C303.272 116.04 303.287 116.111 303.312 116.172C303.399 116.333 303.571 116.413 303.83 116.413C304.09 116.413 304.343 116.413 304.589 116.413H308.18C308.279 116.413 308.402 116.41 308.551 116.404C308.699 116.398 308.841 116.398 308.976 116.404C309.112 116.41 309.239 116.425 309.356 116.45C309.473 116.475 309.55 116.512 309.587 116.561C309.649 116.635 309.68 116.728 309.68 116.839C309.68 116.95 309.68 117.067 309.68 117.191V118.042C309.68 118.141 309.683 118.233 309.689 118.32C309.695 118.406 309.686 118.48 309.661 118.542C309.612 118.641 309.55 118.708 309.476 118.745C309.414 118.795 309.322 118.819 309.198 118.819C309.075 118.819 308.958 118.819 308.847 118.819H307.533H302.516H301.183C301.011 118.819 300.86 118.81 300.73 118.792C300.6 118.773 300.505 118.715 300.443 118.616C300.394 118.542 300.369 118.446 300.369 118.329C300.369 118.212 300.369 118.098 300.369 117.986V116.691V111.786V107.602V106.436C300.369 106.325 300.372 106.214 300.378 106.103C300.384 105.992 300.406 105.905 300.443 105.844C300.492 105.757 300.591 105.696 300.739 105.659C300.764 105.646 300.789 105.643 300.813 105.649C300.838 105.656 300.863 105.652 300.887 105.64Z" fill="url(#paint7_linear_1_2)"/>
<path d="M312.703 105.64H314.202C314.338 105.64 314.477 105.64 314.619 105.64C314.761 105.64 314.875 105.671 314.961 105.733C315.072 105.794 315.146 105.893 315.183 106.029C315.22 106.165 315.264 106.3 315.313 106.436C315.399 106.671 315.476 106.905 315.544 107.139C315.612 107.374 315.689 107.615 315.776 107.861C316.023 108.626 316.266 109.392 316.507 110.157C316.748 110.922 316.991 111.687 317.238 112.452C317.3 112.662 317.365 112.871 317.432 113.081C317.5 113.291 317.565 113.501 317.627 113.711C317.664 113.822 317.701 113.933 317.738 114.044C317.775 114.155 317.824 114.254 317.886 114.34C317.898 114.365 317.914 114.38 317.932 114.386C317.951 114.392 317.972 114.408 317.997 114.433C318.133 114.433 318.222 114.374 318.265 114.257C318.309 114.139 318.349 114.031 318.386 113.933C318.484 113.674 318.571 113.408 318.645 113.137C318.719 112.865 318.805 112.588 318.904 112.304C319.175 111.489 319.438 110.678 319.691 109.87C319.944 109.061 320.206 108.25 320.477 107.436C320.539 107.238 320.601 107.044 320.662 106.853C320.724 106.661 320.786 106.467 320.848 106.269C320.897 106.171 320.937 106.072 320.968 105.973C320.999 105.875 321.064 105.794 321.162 105.733C321.249 105.671 321.35 105.64 321.468 105.64C321.585 105.64 321.705 105.64 321.829 105.64H323.069C323.192 105.64 323.316 105.64 323.439 105.64C323.562 105.64 323.661 105.665 323.735 105.714C323.859 105.776 323.902 105.89 323.865 106.057C323.828 106.223 323.791 106.362 323.754 106.473C323.643 106.757 323.541 107.05 323.448 107.352C323.356 107.655 323.26 107.954 323.161 108.25C323.124 108.324 323.097 108.398 323.078 108.472C323.06 108.546 323.038 108.62 323.013 108.694C322.915 108.953 322.825 109.219 322.745 109.49C322.665 109.762 322.575 110.033 322.476 110.305C322.143 111.304 321.81 112.307 321.477 113.313C321.144 114.318 320.811 115.321 320.477 116.321C320.366 116.604 320.268 116.891 320.181 117.181C320.095 117.471 320.002 117.758 319.904 118.042C319.842 118.215 319.78 118.372 319.718 118.514C319.657 118.656 319.533 118.752 319.348 118.801C319.25 118.826 319.138 118.835 319.015 118.829C318.892 118.823 318.774 118.819 318.663 118.819H317.331C317.195 118.819 317.05 118.823 316.896 118.829C316.741 118.835 316.615 118.807 316.516 118.745C316.38 118.671 316.291 118.557 316.248 118.403C316.205 118.249 316.158 118.098 316.109 117.949C316.023 117.69 315.939 117.428 315.859 117.163C315.779 116.897 315.695 116.635 315.609 116.376C315.338 115.599 315.078 114.815 314.832 114.025C314.585 113.236 314.326 112.446 314.054 111.656C313.943 111.298 313.835 110.943 313.73 110.592C313.625 110.24 313.511 109.891 313.388 109.546C313.339 109.435 313.302 109.324 313.277 109.213C313.252 109.102 313.215 108.99 313.166 108.879C313.055 108.534 312.947 108.191 312.842 107.852C312.737 107.513 312.623 107.17 312.499 106.825C312.475 106.714 312.444 106.606 312.407 106.501C312.37 106.396 312.333 106.288 312.296 106.177C312.283 106.115 312.274 106.054 312.268 105.992C312.262 105.93 312.271 105.875 312.296 105.825C312.333 105.739 312.413 105.683 312.536 105.659C312.561 105.646 312.589 105.643 312.62 105.649C312.651 105.656 312.678 105.652 312.703 105.64Z" fill="url(#paint8_linear_1_2)"/>
<path d="M329.498 105.659H331.09C331.226 105.659 331.355 105.662 331.479 105.668C331.602 105.674 331.695 105.72 331.756 105.807C331.818 105.893 331.852 106.004 331.858 106.14C331.864 106.276 331.867 106.424 331.867 106.584V108.195V114.618V117.653C331.867 117.814 331.87 117.993 331.877 118.19C331.883 118.388 331.855 118.536 331.793 118.634C331.744 118.721 331.633 118.789 331.46 118.838C331.374 118.863 331.281 118.869 331.182 118.857C331.084 118.844 330.985 118.838 330.886 118.838H329.794C329.658 118.838 329.532 118.832 329.415 118.819C329.298 118.807 329.202 118.77 329.128 118.708C329.066 118.647 329.029 118.554 329.017 118.431C329.004 118.307 328.998 118.178 328.998 118.042V116.432V109.675V106.973C328.998 106.8 328.995 106.596 328.989 106.362C328.983 106.128 329.011 105.961 329.072 105.862C329.122 105.788 329.202 105.727 329.313 105.677C329.35 105.677 329.384 105.674 329.415 105.668C329.446 105.662 329.473 105.659 329.498 105.659Z" fill="url(#paint9_linear_1_2)"/>
<path d="M338.87 105.64H341.295C341.493 105.64 341.693 105.64 341.897 105.64C342.101 105.64 342.258 105.683 342.369 105.77C342.455 105.831 342.517 105.921 342.554 106.038C342.591 106.155 342.628 106.269 342.665 106.381C342.739 106.578 342.81 106.778 342.878 106.982C342.946 107.186 343.017 107.392 343.091 107.602C343.375 108.38 343.643 109.169 343.896 109.972C344.149 110.774 344.424 111.57 344.72 112.359C344.818 112.606 344.905 112.859 344.979 113.118C345.053 113.377 345.139 113.63 345.238 113.877C345.263 113.939 345.287 114.001 345.312 114.062C345.337 114.124 345.38 114.173 345.442 114.21C345.466 114.223 345.491 114.235 345.516 114.247C345.54 114.26 345.565 114.254 345.59 114.229C345.688 114.204 345.756 114.13 345.793 114.007C345.83 113.883 345.867 113.772 345.904 113.674C346.003 113.39 346.093 113.109 346.173 112.831C346.253 112.554 346.342 112.273 346.441 111.989C346.688 111.236 346.935 110.481 347.182 109.722C347.428 108.963 347.675 108.201 347.922 107.436C347.984 107.238 348.045 107.044 348.107 106.853C348.169 106.661 348.23 106.467 348.292 106.269C348.329 106.171 348.366 106.072 348.403 105.973C348.44 105.875 348.508 105.794 348.607 105.733C348.681 105.671 348.777 105.64 348.894 105.64C349.011 105.64 349.131 105.64 349.255 105.64H350.458H351.735C351.846 105.64 351.96 105.64 352.078 105.64C352.195 105.64 352.284 105.665 352.346 105.714C352.482 105.788 352.55 105.927 352.55 106.131C352.55 106.334 352.55 106.541 352.55 106.751V109.527V116.413V118.023C352.55 118.159 352.546 118.292 352.54 118.421C352.534 118.551 352.494 118.647 352.42 118.708C352.346 118.77 352.253 118.804 352.142 118.81C352.031 118.816 351.908 118.819 351.772 118.819H350.884H350.384C350.285 118.795 350.202 118.776 350.134 118.764C350.066 118.752 350.007 118.708 349.958 118.634C349.909 118.573 349.884 118.492 349.884 118.394C349.884 118.295 349.884 118.19 349.884 118.079V117.135V112.378C349.872 112.205 349.866 112.042 349.866 111.887C349.866 111.733 349.866 111.576 349.866 111.415C349.866 111.317 349.869 111.215 349.875 111.11C349.881 111.005 349.872 110.903 349.847 110.805C349.822 110.718 349.81 110.626 349.81 110.527C349.81 110.428 349.773 110.366 349.699 110.342C349.662 110.329 349.634 110.336 349.616 110.36C349.597 110.385 349.582 110.403 349.569 110.416C349.52 110.465 349.48 110.524 349.449 110.592C349.418 110.66 349.39 110.724 349.366 110.786C349.292 110.971 349.221 111.162 349.153 111.36C349.085 111.557 349.014 111.755 348.94 111.952C348.915 112.026 348.894 112.1 348.875 112.174C348.857 112.248 348.829 112.322 348.792 112.396C348.73 112.557 348.675 112.717 348.625 112.878C348.576 113.038 348.52 113.198 348.459 113.359C348.434 113.396 348.422 113.436 348.422 113.479C348.422 113.522 348.409 113.563 348.385 113.6C348.335 113.711 348.295 113.828 348.264 113.951C348.234 114.075 348.187 114.198 348.126 114.321C348.076 114.433 348.036 114.55 348.005 114.673C347.974 114.797 347.934 114.92 347.885 115.043C347.737 115.401 347.607 115.762 347.496 116.126C347.385 116.49 347.262 116.851 347.126 117.209C347.101 117.246 347.089 117.283 347.089 117.32C347.089 117.357 347.077 117.394 347.052 117.431C346.99 117.567 346.941 117.706 346.904 117.848C346.867 117.99 346.817 118.128 346.756 118.264C346.719 118.351 346.685 118.431 346.654 118.505C346.623 118.579 346.577 118.641 346.515 118.69C346.453 118.739 346.392 118.767 346.33 118.773C346.268 118.779 346.194 118.795 346.108 118.819H345.682C345.596 118.819 345.494 118.823 345.377 118.829C345.26 118.835 345.142 118.838 345.025 118.838C344.908 118.838 344.8 118.832 344.701 118.819C344.602 118.807 344.528 118.782 344.479 118.745C344.38 118.684 344.312 118.613 344.275 118.533C344.238 118.452 344.195 118.357 344.146 118.246C344.084 118.098 344.032 117.946 343.988 117.792C343.945 117.638 343.893 117.487 343.831 117.339L343.776 117.172C343.714 117.024 343.658 116.867 343.609 116.7C343.56 116.533 343.504 116.376 343.442 116.228C343.43 116.191 343.421 116.157 343.415 116.126C343.409 116.095 343.399 116.061 343.387 116.024C343.325 115.913 343.276 115.796 343.239 115.673C343.202 115.549 343.159 115.426 343.109 115.303C343.097 115.278 343.088 115.247 343.081 115.21C343.075 115.173 343.066 115.142 343.054 115.117C343.004 114.994 342.964 114.871 342.933 114.747C342.903 114.624 342.856 114.5 342.795 114.377C342.696 114.13 342.603 113.871 342.517 113.6C342.431 113.328 342.338 113.063 342.239 112.804C342.128 112.495 342.023 112.18 341.925 111.86C341.826 111.539 341.709 111.23 341.573 110.934C341.511 110.761 341.443 110.619 341.369 110.508C341.345 110.484 341.32 110.462 341.295 110.444C341.271 110.425 341.24 110.428 341.203 110.453C341.141 110.49 341.11 110.552 341.11 110.638C341.11 110.724 341.098 110.811 341.073 110.897C341.048 110.983 341.039 111.073 341.045 111.165C341.051 111.258 341.055 111.354 341.055 111.452C341.055 111.588 341.055 111.724 341.055 111.86C341.055 111.995 341.048 112.131 341.036 112.267V117.191V118.098C341.036 118.196 341.036 118.295 341.036 118.394C341.036 118.492 341.011 118.573 340.962 118.634C340.913 118.721 340.82 118.776 340.684 118.801C340.598 118.826 340.505 118.835 340.407 118.829C340.308 118.823 340.209 118.819 340.111 118.819H339.148C339.012 118.819 338.889 118.816 338.778 118.81C338.667 118.804 338.574 118.77 338.5 118.708C338.426 118.647 338.383 118.551 338.371 118.422C338.358 118.292 338.352 118.159 338.352 118.024V116.395V109.509V106.917C338.352 106.843 338.352 106.754 338.352 106.649C338.352 106.544 338.352 106.442 338.352 106.344C338.352 106.245 338.358 106.149 338.371 106.057C338.383 105.964 338.401 105.893 338.426 105.844C338.475 105.757 338.574 105.696 338.722 105.659C338.747 105.646 338.772 105.643 338.796 105.649C338.821 105.656 338.846 105.652 338.87 105.64Z" fill="url(#paint10_linear_1_2)"/>
<path d="M359.479 105.64H366.401H368.012C368.16 105.64 368.302 105.646 368.438 105.659C368.573 105.671 368.672 105.72 368.734 105.807C368.758 105.844 368.774 105.887 368.78 105.936C368.786 105.986 368.802 106.035 368.826 106.084V106.288C368.839 106.374 368.842 106.467 368.836 106.566C368.829 106.664 368.826 106.757 368.826 106.843C368.826 106.942 368.829 107.038 368.836 107.13C368.842 107.223 368.839 107.312 368.826 107.399C368.814 107.46 368.808 107.553 368.808 107.676C368.771 107.824 368.709 107.923 368.623 107.972C368.549 108.022 368.456 108.046 368.345 108.046C368.234 108.046 368.117 108.046 367.993 108.046H366.716H363.366C363.267 108.046 363.153 108.043 363.023 108.037C362.894 108.031 362.764 108.031 362.635 108.037C362.505 108.043 362.385 108.056 362.274 108.074C362.163 108.093 362.082 108.12 362.033 108.158C361.947 108.219 361.894 108.309 361.876 108.426C361.857 108.543 361.848 108.676 361.848 108.824V109.879V110.416C361.873 110.514 361.897 110.598 361.922 110.666C361.947 110.734 361.99 110.786 362.052 110.823C362.126 110.872 362.212 110.9 362.311 110.906C362.409 110.912 362.514 110.916 362.625 110.916H363.625H366.809C366.895 110.916 367.003 110.912 367.133 110.906C367.262 110.9 367.389 110.9 367.512 110.906C367.636 110.912 367.75 110.922 367.855 110.934C367.959 110.946 368.037 110.971 368.086 111.008C368.148 111.045 368.191 111.119 368.216 111.23C368.24 111.341 368.256 111.462 368.262 111.591C368.268 111.721 368.268 111.853 368.262 111.989C368.256 112.125 368.253 112.242 368.253 112.341C368.253 112.427 368.253 112.514 368.253 112.6C368.253 112.686 368.24 112.76 368.216 112.822C368.191 112.921 368.141 113.001 368.067 113.063C368.006 113.1 367.922 113.124 367.818 113.137C367.713 113.149 367.595 113.155 367.466 113.155C367.336 113.155 367.207 113.152 367.077 113.146C366.948 113.14 366.84 113.137 366.753 113.137H363.144C362.996 113.137 362.854 113.134 362.718 113.128C362.582 113.121 362.456 113.127 362.339 113.146C362.221 113.165 362.123 113.202 362.042 113.257C361.962 113.313 361.903 113.396 361.866 113.507C361.854 113.569 361.848 113.633 361.848 113.701C361.848 113.769 361.848 113.834 361.848 113.896V114.599V115.636C361.848 115.784 361.857 115.916 361.876 116.034C361.894 116.151 361.947 116.24 362.033 116.302C362.07 116.339 362.116 116.361 362.172 116.367C362.227 116.373 362.286 116.388 362.348 116.413H362.533C362.595 116.425 362.662 116.429 362.736 116.422C362.81 116.416 362.878 116.413 362.94 116.413H363.717H367.197H368.178C368.277 116.413 368.373 116.413 368.465 116.413C368.558 116.413 368.641 116.432 368.715 116.469C368.814 116.506 368.882 116.574 368.919 116.672C368.944 116.734 368.959 116.808 368.965 116.894C368.971 116.981 368.974 117.073 368.974 117.172V118.023C368.974 118.172 368.968 118.31 368.956 118.44C368.944 118.57 368.888 118.665 368.789 118.727C368.715 118.789 368.62 118.819 368.502 118.819C368.385 118.819 368.259 118.819 368.123 118.819H366.735H361.256H359.793C359.621 118.819 359.469 118.81 359.34 118.792C359.21 118.773 359.115 118.715 359.053 118.616C359.004 118.542 358.979 118.446 358.979 118.329C358.979 118.212 358.979 118.098 358.979 117.986V116.654V111.619V107.584V106.436C358.979 106.325 358.979 106.214 358.979 106.103C358.979 105.992 359.004 105.905 359.053 105.844C359.102 105.757 359.195 105.696 359.331 105.659C359.355 105.646 359.38 105.643 359.405 105.649C359.429 105.655 359.454 105.652 359.479 105.64Z" fill="url(#paint11_linear_1_2)"/>
<path d="M375.348 105.64H376.848C376.983 105.64 377.116 105.637 377.245 105.631C377.375 105.625 377.489 105.646 377.588 105.696C377.711 105.745 377.807 105.819 377.875 105.918C377.943 106.016 378.007 106.115 378.069 106.214L378.736 107.269C379.167 107.972 379.602 108.673 380.041 109.37C380.479 110.067 380.914 110.767 381.345 111.471C381.555 111.804 381.762 112.14 381.966 112.48C382.169 112.819 382.382 113.149 382.604 113.47C382.654 113.544 382.7 113.618 382.743 113.692C382.786 113.766 382.845 113.834 382.919 113.896C382.944 113.92 382.974 113.945 383.011 113.97C383.048 113.994 383.085 113.994 383.122 113.97C383.209 113.945 383.252 113.89 383.252 113.803C383.252 113.717 383.264 113.624 383.289 113.526C383.301 113.439 383.305 113.343 383.298 113.239C383.292 113.134 383.289 113.032 383.289 112.933V111.767V107.473V106.769C383.289 106.708 383.286 106.646 383.28 106.584C383.274 106.522 383.277 106.467 383.289 106.418V106.214C383.289 106.041 383.326 105.905 383.4 105.807C383.462 105.72 383.545 105.671 383.65 105.659C383.755 105.646 383.875 105.64 384.011 105.64H385.14C385.239 105.64 385.338 105.64 385.436 105.64C385.535 105.64 385.621 105.652 385.695 105.677C385.856 105.739 385.942 105.847 385.955 106.001C385.967 106.155 385.973 106.337 385.973 106.547V108.583V116.339V117.894C385.973 118.03 385.976 118.165 385.982 118.301C385.989 118.437 385.967 118.542 385.918 118.616C385.868 118.69 385.81 118.736 385.742 118.755C385.674 118.773 385.591 118.795 385.492 118.819H384.844H383.826C383.715 118.819 383.607 118.819 383.502 118.819C383.397 118.819 383.308 118.801 383.234 118.764C383.098 118.702 382.993 118.619 382.919 118.514C382.845 118.409 382.771 118.295 382.697 118.172C382.586 117.999 382.478 117.823 382.373 117.644C382.268 117.465 382.16 117.289 382.049 117.117L379.272 112.674C379.1 112.39 378.93 112.116 378.763 111.85C378.597 111.585 378.427 111.31 378.254 111.027C378.193 110.94 378.122 110.832 378.041 110.703C377.961 110.573 377.853 110.508 377.717 110.508C377.619 110.595 377.566 110.693 377.56 110.805C377.554 110.916 377.551 111.057 377.551 111.23V112.526V116.95V117.672C377.551 117.734 377.554 117.795 377.56 117.857C377.566 117.919 377.557 117.98 377.532 118.042V118.246C377.532 118.443 377.502 118.585 377.44 118.671C377.378 118.745 377.295 118.789 377.19 118.801C377.085 118.813 376.965 118.819 376.829 118.819H375.7C375.601 118.819 375.502 118.819 375.404 118.819C375.305 118.819 375.219 118.807 375.145 118.782C374.984 118.721 374.895 118.61 374.876 118.449C374.858 118.289 374.848 118.104 374.848 117.894V115.765V108.343V106.621C374.848 106.485 374.848 106.344 374.848 106.195C374.848 106.047 374.873 105.93 374.922 105.844C374.972 105.757 375.058 105.696 375.182 105.659C375.206 105.659 375.234 105.656 375.265 105.649C375.296 105.643 375.323 105.64 375.348 105.64Z" fill="url(#paint12_linear_1_2)"/>
<path d="M391.884 105.64H399.288H401.176C401.337 105.64 401.494 105.643 401.648 105.649C401.802 105.656 401.929 105.689 402.028 105.751C402.065 105.776 402.092 105.816 402.111 105.872C402.13 105.927 402.145 105.986 402.157 106.047V106.14C402.17 106.189 402.176 106.245 402.176 106.306C402.176 106.368 402.176 106.43 402.176 106.492V107.214C402.176 107.3 402.179 107.383 402.185 107.463C402.191 107.544 402.182 107.621 402.157 107.695C402.096 107.905 401.972 108.016 401.787 108.028C401.602 108.04 401.38 108.046 401.121 108.046H399.233C398.986 108.046 398.773 108.056 398.594 108.074C398.415 108.093 398.295 108.207 398.233 108.417C398.221 108.478 398.221 108.534 398.233 108.583C398.245 108.633 398.239 108.688 398.215 108.75C398.202 108.824 398.199 108.907 398.205 109C398.211 109.092 398.215 109.176 398.215 109.25V110.897V116.228V117.968C398.215 118.165 398.205 118.335 398.187 118.477C398.168 118.619 398.091 118.721 397.955 118.782C397.869 118.807 397.77 118.819 397.659 118.819C397.548 118.819 397.443 118.819 397.345 118.819H396.086C395.95 118.819 395.824 118.813 395.706 118.801C395.589 118.789 395.5 118.745 395.438 118.671C395.376 118.573 395.345 118.446 395.345 118.292C395.345 118.138 395.345 117.98 395.345 117.82V115.969V110.823V109.25C395.345 109.163 395.349 109.074 395.355 108.981C395.361 108.889 395.352 108.805 395.327 108.731C395.315 108.67 395.315 108.614 395.327 108.565C395.339 108.515 395.333 108.466 395.308 108.417C395.247 108.207 395.12 108.093 394.929 108.074C394.738 108.056 394.513 108.046 394.253 108.046H392.532C392.396 108.046 392.245 108.05 392.078 108.056C391.912 108.062 391.779 108.053 391.68 108.028C391.582 107.991 391.508 107.935 391.458 107.861C391.421 107.8 391.4 107.719 391.394 107.621C391.387 107.522 391.384 107.423 391.384 107.325V106.418C391.384 106.257 391.394 106.115 391.412 105.992C391.431 105.868 391.489 105.776 391.588 105.714C391.625 105.689 391.693 105.665 391.791 105.64C391.853 105.64 391.884 105.64 391.884 105.64Z" fill="url(#paint13_linear_1_2)"/>
<path d="M419.952 111.786C419.977 111.86 419.992 111.986 419.998 112.165C420.004 112.344 419.995 112.47 419.97 112.544V112.785C419.946 112.909 419.933 113.038 419.933 113.174C419.933 113.31 419.921 113.445 419.896 113.581C419.872 113.667 419.853 113.754 419.841 113.84C419.828 113.927 419.81 114.013 419.785 114.099C419.724 114.321 419.665 114.537 419.609 114.747C419.554 114.957 419.483 115.161 419.397 115.358C419.026 116.222 418.527 116.941 417.897 117.514C417.268 118.088 416.49 118.529 415.565 118.838C415.429 118.887 415.293 118.924 415.158 118.949C415.022 118.974 414.886 118.998 414.75 119.023C414.689 119.048 414.624 119.06 414.556 119.06C414.488 119.06 414.423 119.066 414.362 119.079L413.751 119.134C413.702 119.146 413.615 119.15 413.492 119.143C413.368 119.137 413.288 119.128 413.251 119.116C413.189 119.103 413.131 119.1 413.075 119.106C413.02 119.113 412.961 119.109 412.899 119.097H412.696C412.597 119.072 412.505 119.057 412.418 119.051C412.332 119.045 412.239 119.029 412.141 119.005C412.042 118.98 411.943 118.958 411.844 118.94C411.746 118.921 411.647 118.9 411.548 118.875C411.412 118.826 411.274 118.776 411.132 118.727C410.99 118.678 410.851 118.622 410.715 118.56C409.975 118.239 409.349 117.811 408.836 117.274C408.324 116.737 407.908 116.098 407.587 115.358C407.513 115.185 407.451 115.003 407.402 114.812C407.352 114.621 407.297 114.426 407.235 114.229C407.211 114.167 407.198 114.115 407.198 114.072C407.198 114.028 407.192 113.982 407.18 113.933C407.155 113.846 407.137 113.757 407.124 113.664C407.112 113.572 407.093 113.476 407.069 113.377C407.056 113.316 407.053 113.257 407.059 113.202C407.066 113.146 407.056 113.094 407.032 113.044C407.019 112.97 407.019 112.893 407.032 112.813C407.044 112.733 407.044 112.655 407.032 112.581C407.007 112.52 406.995 112.424 406.995 112.295C406.995 112.165 407.007 112.069 407.032 112.008C407.044 111.946 407.044 111.887 407.032 111.832C407.019 111.776 407.019 111.718 407.032 111.656V111.545C407.056 111.458 407.066 111.375 407.059 111.295C407.053 111.215 407.063 111.138 407.087 111.064C407.112 111.002 407.124 110.937 407.124 110.869C407.124 110.801 407.137 110.737 407.161 110.675C407.223 110.465 407.272 110.258 407.309 110.055C407.346 109.851 407.402 109.651 407.476 109.453C407.575 109.243 407.667 109.034 407.754 108.824C407.84 108.614 407.945 108.417 408.068 108.232C408.438 107.639 408.864 107.146 409.345 106.751C409.827 106.356 410.413 106.016 411.104 105.733C411.264 105.671 411.434 105.622 411.613 105.585C411.792 105.548 411.968 105.504 412.141 105.455C412.202 105.43 412.261 105.418 412.316 105.418C412.372 105.418 412.43 105.412 412.492 105.399L413.048 105.344C413.072 105.332 413.106 105.332 413.149 105.344C413.193 105.356 413.226 105.356 413.251 105.344C414.127 105.319 414.886 105.409 415.528 105.612C416.17 105.816 416.743 106.097 417.249 106.455C417.41 106.566 417.576 106.692 417.749 106.834C417.922 106.976 418.064 107.121 418.175 107.269C418.237 107.331 418.298 107.395 418.36 107.463C418.422 107.531 418.477 107.596 418.527 107.658C418.662 107.855 418.798 108.056 418.934 108.259C419.07 108.463 419.187 108.682 419.285 108.916C419.36 109.089 419.424 109.256 419.48 109.416C419.535 109.577 419.594 109.749 419.656 109.934C419.693 110.058 419.724 110.184 419.748 110.314C419.773 110.444 419.804 110.576 419.841 110.712C419.866 110.798 419.878 110.882 419.878 110.962C419.878 111.042 419.89 111.119 419.915 111.193C419.94 111.267 419.949 111.344 419.943 111.425C419.936 111.505 419.94 111.576 419.952 111.637V111.786ZM417.083 112.563C417.107 112.501 417.12 112.412 417.12 112.295C417.12 112.177 417.107 112.088 417.083 112.026V111.711C417.07 111.662 417.067 111.616 417.074 111.573C417.08 111.529 417.07 111.483 417.046 111.434C417.021 111.335 417.006 111.24 416.999 111.147C416.993 111.054 416.978 110.965 416.953 110.879C416.953 110.817 416.941 110.749 416.916 110.675C416.879 110.539 416.842 110.403 416.805 110.268C416.768 110.132 416.719 109.996 416.657 109.86C416.386 109.231 415.994 108.722 415.482 108.333C414.969 107.945 414.257 107.75 413.344 107.75C413.319 107.763 413.291 107.766 413.26 107.76C413.23 107.753 413.202 107.756 413.177 107.769C413.128 107.781 413.078 107.784 413.029 107.778C412.98 107.772 412.924 107.781 412.862 107.806C412.727 107.831 412.594 107.858 412.464 107.889C412.335 107.92 412.215 107.96 412.103 108.009C411.585 108.232 411.175 108.54 410.873 108.935C410.57 109.33 410.326 109.805 410.141 110.36C410.104 110.496 410.077 110.629 410.058 110.758C410.04 110.888 410.012 111.02 409.975 111.156C409.962 111.206 409.956 111.252 409.956 111.295C409.956 111.338 409.95 111.385 409.938 111.434C409.913 111.496 409.907 111.563 409.919 111.637C409.932 111.712 409.932 111.779 409.919 111.841C409.895 111.903 409.879 112.017 409.873 112.184C409.867 112.35 409.876 112.464 409.901 112.526V112.73C409.913 112.779 409.919 112.831 409.919 112.887C409.919 112.942 409.925 112.995 409.938 113.044C409.938 113.094 409.941 113.14 409.947 113.183C409.953 113.226 409.956 113.273 409.956 113.322C409.993 113.458 410.021 113.593 410.04 113.729C410.058 113.865 410.092 113.994 410.141 114.118C410.277 114.513 410.444 114.88 410.641 115.219C410.839 115.559 411.085 115.833 411.382 116.043C411.443 116.105 411.508 116.154 411.576 116.191C411.644 116.228 411.715 116.265 411.789 116.302C411.925 116.388 412.07 116.456 412.224 116.506C412.378 116.555 412.542 116.604 412.714 116.654C412.776 116.678 412.835 116.688 412.89 116.682C412.946 116.675 413.004 116.678 413.066 116.691C413.14 116.715 413.214 116.728 413.288 116.728C413.362 116.728 413.442 116.728 413.529 116.728H413.677C413.739 116.715 413.794 116.712 413.843 116.719C413.893 116.725 413.948 116.715 414.01 116.691C414.133 116.666 414.257 116.645 414.38 116.626C414.504 116.608 414.621 116.574 414.732 116.524C415.263 116.314 415.679 116.043 415.981 115.71C416.284 115.377 416.54 114.945 416.75 114.414C416.811 114.278 416.858 114.13 416.888 113.97C416.919 113.809 416.959 113.649 417.009 113.489L417.064 113.044C417.077 112.995 417.083 112.942 417.083 112.887C417.083 112.831 417.083 112.773 417.083 112.711V112.563Z" fill="url(#paint14_linear_1_2)"/>
<path d="M183.867 86.7579H194.472V56.5595H216.085L241.941 86.7579H255.878L230.023 56.5595H237.8C247.798 56.5595 255.878 48.4797 255.878 38.4809V32.926C255.878 22.9272 247.798 14.8473 237.8 14.8473H183.867V25.4521H237.8C244.769 25.4521 245.273 31.108 245.273 34.7439C245.273 41.4098 243.456 45.9547 237.8 45.9547H183.867V86.7579Z" fill="url(#paint15_linear_1_2)"/>
<path d="M319.911 86.7579C329.91 86.7579 337.889 78.7791 337.889 68.7803H327.385C327.385 72.9212 324.052 76.2541 319.911 76.2541H284.057C279.916 76.2541 276.583 72.8202 276.583 68.6793V45.9547H265.978V68.6793C265.978 78.6781 274.058 86.7579 284.057 86.7579H319.911ZM337.889 32.724C337.889 22.8262 329.809 14.8474 319.911 14.8474H284.158C274.058 14.8474 265.978 22.8262 265.978 32.926H276.583C276.583 28.6841 280.017 25.4521 284.158 25.4521H319.911C324.052 25.4521 327.385 28.7851 327.385 32.926H337.889V32.724Z" fill="url(#paint16_linear_1_2)"/>
<path d="M409.496 85.2429C415.859 82.213 420 75.8501 420 68.7803V33.027C420 23.0282 411.92 14.9483 401.921 14.9483H365.461C355.866 14.9483 347.988 23.6342 347.988 33.027V68.7803C347.988 78.0721 355.967 86.8589 365.461 86.8589H383.035L373.945 76.3551C372.531 76.3551 371.117 76.4561 369.703 76.4561C364.249 76.4561 358.593 75.4461 358.593 68.7803V33.027C358.593 29.29 361.825 25.5531 365.663 25.5531H401.921C405.961 25.5531 409.395 28.8861 409.395 32.926V68.7803C409.395 72.9212 406.163 76.3551 401.921 76.3551L392.832 65.7503H378.894L406.062 97.4637H420L409.496 85.2429Z" fill="url(#paint17_linear_1_2)"/>
<path fill-rule="evenodd" clip-rule="evenodd" d="M59.171 3.79398L2.8538 60.111C0.951298 62.013 0 64.31 0 67C0 69.69 0.951298 71.987 2.8538 73.889L59.171 130.206C61.073 132.109 63.37 133.06 66.06 133.06C68.75 133.06 71.047 132.109 72.949 130.206L129.266 73.889C131.169 71.987 132.12 69.691 132.12 67C132.12 64.31 131.169 62.013 129.266 60.111L72.949 3.79398C71.047 1.89098 68.75 0.939972 66.06 0.939972C63.37 0.939972 61.073 1.89098 59.171 3.79398ZM71.732 128.989C70.166 130.556 68.275 131.339 66.06 131.339C63.845 131.339 61.954 130.556 60.388 128.989L4.0709 72.672C2.5046 71.106 1.7214 69.215 1.7214 67C1.7214 64.785 2.5046 62.894 4.0709 61.328L60.388 5.01097C61.954 3.44497 63.845 2.66096 66.06 2.66096C68.275 2.66096 70.166 3.44497 71.732 5.01097L128.049 61.328C129.616 62.894 130.399 64.785 130.399 67C130.399 69.215 129.616 71.106 128.049 72.672L71.732 128.989Z" fill="url(#paint18_linear_1_2)"/>
<path fill-rule="evenodd" clip-rule="evenodd" d="M69.463 12.555C69.463 10.675 67.939 9.15198 66.06 9.15198C64.181 9.15198 62.657 10.675 62.657 12.555V121.445C62.657 123.325 64.181 124.848 66.06 124.848C67.939 124.848 69.463 123.325 69.463 121.445V12.555Z" fill="url(#paint19_linear_1_2)"/>
<path fill-rule="evenodd" clip-rule="evenodd" d="M52.449 29.569C52.449 27.689 50.925 26.166 49.046 26.166C47.167 26.166 45.643 27.689 45.643 29.569V104.431C45.643 106.311 47.167 107.834 49.046 107.834C50.925 107.834 52.449 106.311 52.449 104.431V29.569Z" fill="url(#paint20_linear_1_2)"/>
<path fill-rule="evenodd" clip-rule="evenodd" d="M86.477 29.569C86.477 27.689 84.954 26.166 83.074 26.166C81.195 26.166 79.671 27.689 79.671 29.569V104.431C79.671 106.311 81.195 107.834 83.074 107.834C84.954 107.834 86.477 106.311 86.477 104.431V29.569Z" fill="url(#paint21_linear_1_2)"/>
<path fill-rule="evenodd" clip-rule="evenodd" d="M35.435 46.583C35.435 44.704 33.9111 43.18 32.0317 43.18C30.1523 43.18 28.6289 44.704 28.6289 46.583V87.417C28.6289 89.296 30.1523 90.82 32.0317 90.82C33.9111 90.82 35.435 89.296 35.435 87.417V46.583Z" fill="url(#paint22_linear_1_2)"/>
<path fill-rule="evenodd" clip-rule="evenodd" d="M103.491 46.583C103.491 44.704 101.968 43.18 100.088 43.18C98.209 43.18 96.686 44.704 96.686 46.583V87.417C96.686 89.296 98.209 90.82 100.088 90.82C101.968 90.82 103.491 89.296 103.491 87.417V46.583Z" fill="url(#paint23_linear_1_2)"/>
<path fill-rule="evenodd" clip-rule="evenodd" d="M113.7 70.403C113.7 72.282 115.223 73.806 117.103 73.806C118.982 73.806 120.505 72.282 120.505 70.403V63.597C120.505 61.718 118.982 60.194 117.103 60.194C115.223 60.194 113.7 61.718 113.7 63.597V70.403Z" fill="url(#paint24_linear_1_2)"/>
<path fill-rule="evenodd" clip-rule="evenodd" d="M15.0175 60.194C16.8969 60.194 18.4204 61.718 18.4204 63.597V70.403C18.4204 72.282 16.8969 73.806 15.0175 73.806C13.1382 73.806 11.6147 72.282 11.6147 70.403V63.597C11.6147 61.718 13.1382 60.194 15.0175 60.194Z" fill="url(#paint25_linear_1_2)"/>
</g>
<defs>
<linearGradient id="paint0_linear_1_2" x1="-0.000173066" y1="67" x2="420" y2="67" gradientUnits="userSpaceOnUse">
<stop stop-color="#4568DC"/>
<stop offset="1" stop-color="#B06AB3"/>
</linearGradient>
<linearGradient id="paint1_linear_1_2" x1="-0.000106328" y1="66.9999" x2="420" y2="66.9999" gradientUnits="userSpaceOnUse">
<stop stop-color="#4568DC"/>
<stop offset="1" stop-color="#B06AB3"/>
</linearGradient>
<linearGradient id="paint2_linear_1_2" x1="3.09146e-05" y1="67" x2="420" y2="67" gradientUnits="userSpaceOnUse">
<stop stop-color="#4568DC"/>
<stop offset="1" stop-color="#B06AB3"/>
</linearGradient>
<linearGradient id="paint3_linear_1_2" x1="-0.000121216" y1="66.9999" x2="420" y2="66.9999" gradientUnits="userSpaceOnUse">
<stop stop-color="#4568DC"/>
<stop offset="1" stop-color="#B06AB3"/>
</linearGradient>
<linearGradient id="paint4_linear_1_2" x1="-4.36509e-05" y1="67" x2="420" y2="67" gradientUnits="userSpaceOnUse">
<stop stop-color="#4568DC"/>
<stop offset="1" stop-color="#B06AB3"/>
</linearGradient>
<linearGradient id="paint5_linear_1_2" x1="-0.000462154" y1="67" x2="420" y2="67" gradientUnits="userSpaceOnUse">
<stop stop-color="#4568DC"/>
<stop offset="1" stop-color="#B06AB3"/>
</linearGradient>
<linearGradient id="paint6_linear_1_2" x1="3.36947e-05" y1="67" x2="420" y2="67" gradientUnits="userSpaceOnUse">
<stop stop-color="#4568DC"/>
<stop offset="1" stop-color="#B06AB3"/>
</linearGradient>
<linearGradient id="paint7_linear_1_2" x1="-0.000208249" y1="67" x2="420" y2="67" gradientUnits="userSpaceOnUse">
<stop stop-color="#4568DC"/>
<stop offset="1" stop-color="#B06AB3"/>
</linearGradient>
<linearGradient id="paint8_linear_1_2" x1="0.000145381" y1="67" x2="420" y2="67" gradientUnits="userSpaceOnUse">
<stop stop-color="#4568DC"/>
<stop offset="1" stop-color="#B06AB3"/>
</linearGradient>
<linearGradient id="paint9_linear_1_2" x1="0.00183285" y1="67" x2="419.999" y2="67" gradientUnits="userSpaceOnUse">
<stop stop-color="#4568DC"/>
<stop offset="1" stop-color="#B06AB3"/>
</linearGradient>
<linearGradient id="paint10_linear_1_2" x1="1.09136e-05" y1="67" x2="420" y2="67" gradientUnits="userSpaceOnUse">
<stop stop-color="#4568DC"/>
<stop offset="1" stop-color="#B06AB3"/>
</linearGradient>
<linearGradient id="paint11_linear_1_2" x1="0.000929837" y1="66.9999" x2="420" y2="66.9999" gradientUnits="userSpaceOnUse">
<stop stop-color="#4568DC"/>
<stop offset="1" stop-color="#B06AB3"/>
</linearGradient>
<linearGradient id="paint12_linear_1_2" x1="-8.08677e-05" y1="67" x2="420" y2="67" gradientUnits="userSpaceOnUse">
<stop stop-color="#4568DC"/>
<stop offset="1" stop-color="#B06AB3"/>
</linearGradient>
<linearGradient id="paint13_linear_1_2" x1="0.000327821" y1="67" x2="420" y2="67" gradientUnits="userSpaceOnUse">
<stop stop-color="#4568DC"/>
<stop offset="1" stop-color="#B06AB3"/>
</linearGradient>
<linearGradient id="paint14_linear_1_2" x1="1.52046e-05" y1="67" x2="420" y2="67" gradientUnits="userSpaceOnUse">
<stop stop-color="#4568DC"/>
<stop offset="1" stop-color="#B06AB3"/>
</linearGradient>
<linearGradient id="paint15_linear_1_2" x1="-1.57513e-05" y1="67" x2="420" y2="67" gradientUnits="userSpaceOnUse">
<stop stop-color="#4568DC"/>
<stop offset="1" stop-color="#B06AB3"/>
</linearGradient>
<linearGradient id="paint16_linear_1_2" x1="2.9493e-05" y1="67" x2="420" y2="67" gradientUnits="userSpaceOnUse">
<stop stop-color="#4568DC"/>
<stop offset="1" stop-color="#B06AB3"/>
</linearGradient>
<linearGradient id="paint17_linear_1_2" x1="-2.7811e-05" y1="67" x2="420" y2="67" gradientUnits="userSpaceOnUse">
<stop stop-color="#4568DC"/>
<stop offset="1" stop-color="#B06AB3"/>
</linearGradient>
<linearGradient id="paint18_linear_1_2" x1="0" y1="67" x2="420" y2="67" gradientUnits="userSpaceOnUse">
<stop stop-color="#4568DC"/>
<stop offset="1" stop-color="#B06AB3"/>
</linearGradient>
<linearGradient id="paint19_linear_1_2" x1="1.24068e-05" y1="67" x2="420" y2="67" gradientUnits="userSpaceOnUse">
<stop stop-color="#4568DC"/>
<stop offset="1" stop-color="#B06AB3"/>
</linearGradient>
<linearGradient id="paint20_linear_1_2" x1="-1.39571e-05" y1="67" x2="420" y2="67" gradientUnits="userSpaceOnUse">
<stop stop-color="#4568DC"/>
<stop offset="1" stop-color="#B06AB3"/>
</linearGradient>
<linearGradient id="paint21_linear_1_2" x1="-2.22645e-05" y1="67" x2="420" y2="67" gradientUnits="userSpaceOnUse">
<stop stop-color="#4568DC"/>
<stop offset="1" stop-color="#B06AB3"/>
</linearGradient>
<linearGradient id="paint22_linear_1_2" x1="-9.72583e-06" y1="67" x2="420" y2="67" gradientUnits="userSpaceOnUse">
<stop stop-color="#4568DC"/>
<stop offset="1" stop-color="#B06AB3"/>
</linearGradient>
<linearGradient id="paint23_linear_1_2" x1="8.9092e-05" y1="67" x2="420" y2="67" gradientUnits="userSpaceOnUse">
<stop stop-color="#4568DC"/>
<stop offset="1" stop-color="#B06AB3"/>
</linearGradient>
<linearGradient id="paint24_linear_1_2" x1="-0.000139275" y1="67" x2="420" y2="67" gradientUnits="userSpaceOnUse">
<stop stop-color="#4568DC"/>
<stop offset="1" stop-color="#B06AB3"/>
</linearGradient>
<linearGradient id="paint25_linear_1_2" x1="1.68801e-06" y1="67" x2="420" y2="67" gradientUnits="userSpaceOnUse">
<stop stop-color="#4568DC"/>
<stop offset="1" stop-color="#B06AB3"/>
</linearGradient>
<clipPath id="clip0_1_2">
<rect width="420" height="134" fill="white"/>
</clipPath>
</defs>
</svg>